<mxfile host="Electron" agent="Mozilla/5.0 (Macintosh; Intel Mac OS X 10_15_7) AppleWebKit/537.36 (KHTML, like Gecko) draw.io/26.2.15 Chrome/134.0.6998.205 Electron/35.2.1 Safari/537.36" version="26.2.15">
  <diagram name="Page-1" id="6KtBEtoQSH38rBKo5NK8">
    <mxGraphModel dx="1018" dy="692" grid="1" gridSize="10" guides="1" tooltips="1" connect="1" arrows="1" fold="1" page="1" pageScale="1" pageWidth="827" pageHeight="1169" math="0" shadow="0">
      <root>
        <mxCell id="0" />
        <mxCell id="1" parent="0" />
        <mxCell id="3oDLIQcT44kydoRIOHkW-62" value="" style="rounded=0;whiteSpace=wrap;html=1;fillColor=none;" vertex="1" parent="1">
          <mxGeometry x="60" y="440" width="1120" height="380" as="geometry" />
        </mxCell>
        <mxCell id="3oDLIQcT44kydoRIOHkW-89" value="" style="rounded=0;whiteSpace=wrap;html=1;fillColor=none;" vertex="1" parent="1">
          <mxGeometry x="60" y="880" width="1600" height="400" as="geometry" />
        </mxCell>
        <mxCell id="3oDLIQcT44kydoRIOHkW-17" value="" style="rounded=0;whiteSpace=wrap;html=1;fillColor=none;" vertex="1" parent="1">
          <mxGeometry x="60" y="20" width="640" height="360" as="geometry" />
        </mxCell>
        <mxCell id="3oDLIQcT44kydoRIOHkW-1" value="1. Create certificate key" style="rounded=0;whiteSpace=wrap;html=1;fillColor=#ffe6cc;strokeColor=#d79b00;strokeWidth=2;" vertex="1" parent="1">
          <mxGeometry x="80" y="160" width="120" height="60" as="geometry" />
        </mxCell>
        <mxCell id="3oDLIQcT44kydoRIOHkW-2" value="2. Create certificate signing request" style="rounded=0;whiteSpace=wrap;html=1;fillColor=#ffe6cc;strokeColor=#d79b00;strokeWidth=2;" vertex="1" parent="1">
          <mxGeometry x="320" y="160" width="120" height="60" as="geometry" />
        </mxCell>
        <mxCell id="3oDLIQcT44kydoRIOHkW-3" value="Certificate key" style="whiteSpace=wrap;html=1;shape=mxgraph.basic.document;fillColor=#dae8fc;strokeColor=#6c8ebf;" vertex="1" parent="1">
          <mxGeometry x="98.75" y="280" width="82.5" height="60" as="geometry" />
        </mxCell>
        <mxCell id="3oDLIQcT44kydoRIOHkW-4" value="Certificate Signing Request" style="whiteSpace=wrap;html=1;shape=mxgraph.basic.document;fillColor=#dae8fc;strokeColor=#6c8ebf;" vertex="1" parent="1">
          <mxGeometry x="337.5" y="280" width="85" height="60" as="geometry" />
        </mxCell>
        <mxCell id="3oDLIQcT44kydoRIOHkW-5" value="Config" style="whiteSpace=wrap;html=1;shape=mxgraph.basic.document;fillColor=#dae8fc;strokeColor=#6c8ebf;" vertex="1" parent="1">
          <mxGeometry x="340" y="40" width="80" height="60" as="geometry" />
        </mxCell>
        <mxCell id="3oDLIQcT44kydoRIOHkW-6" value="3. Create certificate" style="rounded=0;whiteSpace=wrap;html=1;fillColor=#ffe6cc;strokeColor=#d79b00;strokeWidth=2;" vertex="1" parent="1">
          <mxGeometry x="560" y="160" width="120" height="60" as="geometry" />
        </mxCell>
        <mxCell id="3oDLIQcT44kydoRIOHkW-7" value="" style="endArrow=classic;html=1;rounded=0;strokeWidth=2;fillColor=#ffe6cc;strokeColor=#d79b00;" edge="1" parent="1" source="3oDLIQcT44kydoRIOHkW-1" target="3oDLIQcT44kydoRIOHkW-3">
          <mxGeometry width="50" height="50" relative="1" as="geometry">
            <mxPoint x="480" y="380" as="sourcePoint" />
            <mxPoint x="530" y="330" as="targetPoint" />
          </mxGeometry>
        </mxCell>
        <mxCell id="3oDLIQcT44kydoRIOHkW-8" value="" style="endArrow=classic;html=1;rounded=0;fillColor=#dae8fc;strokeColor=#6c8ebf;edgeStyle=orthogonalEdgeStyle;curved=1;" edge="1" parent="1" source="3oDLIQcT44kydoRIOHkW-3" target="3oDLIQcT44kydoRIOHkW-2">
          <mxGeometry width="50" height="50" relative="1" as="geometry">
            <mxPoint x="480" y="380" as="sourcePoint" />
            <mxPoint x="370" y="260" as="targetPoint" />
            <Array as="points">
              <mxPoint x="260" y="310" />
              <mxPoint x="260" y="190" />
            </Array>
          </mxGeometry>
        </mxCell>
        <mxCell id="3oDLIQcT44kydoRIOHkW-9" value="" style="endArrow=classic;html=1;rounded=0;fillColor=#dae8fc;strokeColor=#6c8ebf;" edge="1" parent="1" source="3oDLIQcT44kydoRIOHkW-5" target="3oDLIQcT44kydoRIOHkW-2">
          <mxGeometry width="50" height="50" relative="1" as="geometry">
            <mxPoint x="480" y="380" as="sourcePoint" />
            <mxPoint x="530" y="330" as="targetPoint" />
          </mxGeometry>
        </mxCell>
        <mxCell id="3oDLIQcT44kydoRIOHkW-10" value="" style="endArrow=classic;html=1;rounded=0;strokeWidth=2;fillColor=#ffe6cc;strokeColor=#d79b00;" edge="1" parent="1" source="3oDLIQcT44kydoRIOHkW-2" target="3oDLIQcT44kydoRIOHkW-4">
          <mxGeometry width="50" height="50" relative="1" as="geometry">
            <mxPoint x="440" y="270" as="sourcePoint" />
            <mxPoint x="530" y="330" as="targetPoint" />
          </mxGeometry>
        </mxCell>
        <mxCell id="3oDLIQcT44kydoRIOHkW-11" value="Certificate" style="whiteSpace=wrap;html=1;shape=mxgraph.basic.document;fillColor=#dae8fc;strokeColor=#6c8ebf;" vertex="1" parent="1">
          <mxGeometry x="580" y="280" width="80" height="60" as="geometry" />
        </mxCell>
        <mxCell id="3oDLIQcT44kydoRIOHkW-12" value="" style="endArrow=classic;html=1;rounded=0;fillColor=#dae8fc;strokeColor=#6c8ebf;edgeStyle=orthogonalEdgeStyle;curved=1;" edge="1" parent="1" source="3oDLIQcT44kydoRIOHkW-4" target="3oDLIQcT44kydoRIOHkW-6">
          <mxGeometry width="50" height="50" relative="1" as="geometry">
            <mxPoint x="480" y="380" as="sourcePoint" />
            <mxPoint x="530" y="330" as="targetPoint" />
            <Array as="points">
              <mxPoint x="510" y="310" />
              <mxPoint x="510" y="190" />
            </Array>
          </mxGeometry>
        </mxCell>
        <mxCell id="3oDLIQcT44kydoRIOHkW-13" value="" style="endArrow=classic;html=1;rounded=0;fillColor=#dae8fc;strokeColor=#6c8ebf;edgeStyle=orthogonalEdgeStyle;curved=1;" edge="1" parent="1" source="3oDLIQcT44kydoRIOHkW-3" target="3oDLIQcT44kydoRIOHkW-6">
          <mxGeometry width="50" height="50" relative="1" as="geometry">
            <mxPoint x="140" y="360" as="sourcePoint" />
            <mxPoint x="530" y="330" as="targetPoint" />
            <Array as="points">
              <mxPoint x="140" y="360" />
              <mxPoint x="580" y="360" />
            </Array>
          </mxGeometry>
        </mxCell>
        <mxCell id="3oDLIQcT44kydoRIOHkW-14" value="" style="endArrow=classic;html=1;rounded=0;fillColor=#dae8fc;strokeColor=#6c8ebf;edgeStyle=orthogonalEdgeStyle;elbow=vertical;curved=1;" edge="1" parent="1" source="3oDLIQcT44kydoRIOHkW-5" target="3oDLIQcT44kydoRIOHkW-6">
          <mxGeometry width="50" height="50" relative="1" as="geometry">
            <mxPoint x="400" y="290" as="sourcePoint" />
            <mxPoint x="530" y="330" as="targetPoint" />
          </mxGeometry>
        </mxCell>
        <mxCell id="3oDLIQcT44kydoRIOHkW-15" value="" style="endArrow=classic;html=1;rounded=0;strokeWidth=2;fillColor=#ffe6cc;strokeColor=#d79b00;" edge="1" parent="1" source="3oDLIQcT44kydoRIOHkW-6" target="3oDLIQcT44kydoRIOHkW-11">
          <mxGeometry width="50" height="50" relative="1" as="geometry">
            <mxPoint x="470" y="420" as="sourcePoint" />
            <mxPoint x="520" y="370" as="targetPoint" />
          </mxGeometry>
        </mxCell>
        <mxCell id="3oDLIQcT44kydoRIOHkW-16" value="Self-signed certificate" style="text;html=1;align=left;verticalAlign=middle;whiteSpace=wrap;rounded=0;fontStyle=5" vertex="1" parent="1">
          <mxGeometry x="80" y="40" width="240" height="30" as="geometry" />
        </mxCell>
        <mxCell id="3oDLIQcT44kydoRIOHkW-19" value="1. Create CA key" style="rounded=0;whiteSpace=wrap;html=1;fillColor=#ffe6cc;strokeColor=#d79b00;strokeWidth=2;" vertex="1" parent="1">
          <mxGeometry x="80" y="580" width="120" height="60" as="geometry" />
        </mxCell>
        <mxCell id="3oDLIQcT44kydoRIOHkW-20" value="2. Create CA certificate" style="rounded=0;whiteSpace=wrap;html=1;fillColor=#ffe6cc;strokeColor=#d79b00;strokeWidth=2;" vertex="1" parent="1">
          <mxGeometry x="320" y="580" width="120" height="60" as="geometry" />
        </mxCell>
        <mxCell id="3oDLIQcT44kydoRIOHkW-21" value="CA Key" style="whiteSpace=wrap;html=1;shape=mxgraph.basic.document;fillColor=#dae8fc;strokeColor=#6c8ebf;" vertex="1" parent="1">
          <mxGeometry x="98.75" y="700" width="82.5" height="60" as="geometry" />
        </mxCell>
        <mxCell id="3oDLIQcT44kydoRIOHkW-22" value="CA certificate" style="whiteSpace=wrap;html=1;shape=mxgraph.basic.document;fillColor=#dae8fc;strokeColor=#6c8ebf;" vertex="1" parent="1">
          <mxGeometry x="337.5" y="700" width="85" height="60" as="geometry" />
        </mxCell>
        <mxCell id="3oDLIQcT44kydoRIOHkW-23" value="CA config" style="whiteSpace=wrap;html=1;shape=mxgraph.basic.document;fillColor=#dae8fc;strokeColor=#6c8ebf;" vertex="1" parent="1">
          <mxGeometry x="340" y="460" width="80" height="60" as="geometry" />
        </mxCell>
        <mxCell id="3oDLIQcT44kydoRIOHkW-25" value="" style="endArrow=classic;html=1;rounded=0;strokeWidth=2;fillColor=#ffe6cc;strokeColor=#d79b00;" edge="1" parent="1" source="3oDLIQcT44kydoRIOHkW-19" target="3oDLIQcT44kydoRIOHkW-21">
          <mxGeometry width="50" height="50" relative="1" as="geometry">
            <mxPoint x="480" y="800" as="sourcePoint" />
            <mxPoint x="530" y="750" as="targetPoint" />
          </mxGeometry>
        </mxCell>
        <mxCell id="3oDLIQcT44kydoRIOHkW-26" value="" style="endArrow=classic;html=1;rounded=0;fillColor=#dae8fc;strokeColor=#6c8ebf;edgeStyle=orthogonalEdgeStyle;curved=1;" edge="1" parent="1" source="3oDLIQcT44kydoRIOHkW-21" target="3oDLIQcT44kydoRIOHkW-20">
          <mxGeometry width="50" height="50" relative="1" as="geometry">
            <mxPoint x="480" y="800" as="sourcePoint" />
            <mxPoint x="370" y="680" as="targetPoint" />
            <Array as="points">
              <mxPoint x="260" y="730" />
              <mxPoint x="260" y="610" />
            </Array>
          </mxGeometry>
        </mxCell>
        <mxCell id="3oDLIQcT44kydoRIOHkW-27" value="" style="endArrow=classic;html=1;rounded=0;fillColor=#dae8fc;strokeColor=#6c8ebf;" edge="1" parent="1" source="3oDLIQcT44kydoRIOHkW-23" target="3oDLIQcT44kydoRIOHkW-20">
          <mxGeometry width="50" height="50" relative="1" as="geometry">
            <mxPoint x="480" y="800" as="sourcePoint" />
            <mxPoint x="530" y="750" as="targetPoint" />
          </mxGeometry>
        </mxCell>
        <mxCell id="3oDLIQcT44kydoRIOHkW-28" value="" style="endArrow=classic;html=1;rounded=0;strokeWidth=2;fillColor=#ffe6cc;strokeColor=#d79b00;" edge="1" parent="1" source="3oDLIQcT44kydoRIOHkW-20" target="3oDLIQcT44kydoRIOHkW-22">
          <mxGeometry width="50" height="50" relative="1" as="geometry">
            <mxPoint x="440" y="690" as="sourcePoint" />
            <mxPoint x="530" y="750" as="targetPoint" />
          </mxGeometry>
        </mxCell>
        <mxCell id="3oDLIQcT44kydoRIOHkW-34" value="Certificate with CA" style="text;html=1;align=left;verticalAlign=middle;whiteSpace=wrap;rounded=0;fontStyle=5" vertex="1" parent="1">
          <mxGeometry x="80" y="460" width="240" height="30" as="geometry" />
        </mxCell>
        <mxCell id="3oDLIQcT44kydoRIOHkW-45" value="3. Create certificate key" style="rounded=0;whiteSpace=wrap;html=1;fillColor=#ffe6cc;strokeColor=#d79b00;strokeWidth=2;" vertex="1" parent="1">
          <mxGeometry x="560" y="580" width="120" height="60" as="geometry" />
        </mxCell>
        <mxCell id="3oDLIQcT44kydoRIOHkW-46" value="4. Create certificate signing request" style="rounded=0;whiteSpace=wrap;html=1;fillColor=#ffe6cc;strokeColor=#d79b00;strokeWidth=2;" vertex="1" parent="1">
          <mxGeometry x="800" y="580" width="120" height="60" as="geometry" />
        </mxCell>
        <mxCell id="3oDLIQcT44kydoRIOHkW-47" value="Certificate key" style="whiteSpace=wrap;html=1;shape=mxgraph.basic.document;fillColor=#dae8fc;strokeColor=#6c8ebf;" vertex="1" parent="1">
          <mxGeometry x="578.75" y="700" width="82.5" height="60" as="geometry" />
        </mxCell>
        <mxCell id="3oDLIQcT44kydoRIOHkW-48" value="Certificate Signing Request" style="whiteSpace=wrap;html=1;shape=mxgraph.basic.document;fillColor=#dae8fc;strokeColor=#6c8ebf;" vertex="1" parent="1">
          <mxGeometry x="817.5" y="700" width="85" height="60" as="geometry" />
        </mxCell>
        <mxCell id="3oDLIQcT44kydoRIOHkW-49" value="Config" style="whiteSpace=wrap;html=1;shape=mxgraph.basic.document;fillColor=#dae8fc;strokeColor=#6c8ebf;" vertex="1" parent="1">
          <mxGeometry x="820" y="460" width="80" height="60" as="geometry" />
        </mxCell>
        <mxCell id="3oDLIQcT44kydoRIOHkW-50" value="5. Create certificate" style="rounded=0;whiteSpace=wrap;html=1;fillColor=#ffe6cc;strokeColor=#d79b00;strokeWidth=2;" vertex="1" parent="1">
          <mxGeometry x="1040" y="580" width="120" height="60" as="geometry" />
        </mxCell>
        <mxCell id="3oDLIQcT44kydoRIOHkW-51" value="" style="endArrow=classic;html=1;rounded=0;strokeWidth=2;fillColor=#ffe6cc;strokeColor=#d79b00;" edge="1" parent="1" source="3oDLIQcT44kydoRIOHkW-45" target="3oDLIQcT44kydoRIOHkW-47">
          <mxGeometry width="50" height="50" relative="1" as="geometry">
            <mxPoint x="960" y="800" as="sourcePoint" />
            <mxPoint x="1010" y="750" as="targetPoint" />
          </mxGeometry>
        </mxCell>
        <mxCell id="3oDLIQcT44kydoRIOHkW-52" value="" style="endArrow=classic;html=1;rounded=0;fillColor=#dae8fc;strokeColor=#6c8ebf;edgeStyle=orthogonalEdgeStyle;curved=1;" edge="1" parent="1" source="3oDLIQcT44kydoRIOHkW-47" target="3oDLIQcT44kydoRIOHkW-46">
          <mxGeometry width="50" height="50" relative="1" as="geometry">
            <mxPoint x="960" y="800" as="sourcePoint" />
            <mxPoint x="850" y="680" as="targetPoint" />
            <Array as="points">
              <mxPoint x="740" y="730" />
              <mxPoint x="740" y="610" />
            </Array>
          </mxGeometry>
        </mxCell>
        <mxCell id="3oDLIQcT44kydoRIOHkW-53" value="" style="endArrow=classic;html=1;rounded=0;fillColor=#dae8fc;strokeColor=#6c8ebf;" edge="1" parent="1" source="3oDLIQcT44kydoRIOHkW-49" target="3oDLIQcT44kydoRIOHkW-46">
          <mxGeometry width="50" height="50" relative="1" as="geometry">
            <mxPoint x="960" y="800" as="sourcePoint" />
            <mxPoint x="1010" y="750" as="targetPoint" />
          </mxGeometry>
        </mxCell>
        <mxCell id="3oDLIQcT44kydoRIOHkW-54" value="" style="endArrow=classic;html=1;rounded=0;strokeWidth=2;fillColor=#ffe6cc;strokeColor=#d79b00;" edge="1" parent="1" source="3oDLIQcT44kydoRIOHkW-46" target="3oDLIQcT44kydoRIOHkW-48">
          <mxGeometry width="50" height="50" relative="1" as="geometry">
            <mxPoint x="920" y="690" as="sourcePoint" />
            <mxPoint x="1010" y="750" as="targetPoint" />
          </mxGeometry>
        </mxCell>
        <mxCell id="3oDLIQcT44kydoRIOHkW-55" value="Certificate" style="whiteSpace=wrap;html=1;shape=mxgraph.basic.document;fillColor=#dae8fc;strokeColor=#6c8ebf;" vertex="1" parent="1">
          <mxGeometry x="1060" y="700" width="80" height="60" as="geometry" />
        </mxCell>
        <mxCell id="3oDLIQcT44kydoRIOHkW-56" value="" style="endArrow=classic;html=1;rounded=0;fillColor=#dae8fc;strokeColor=#6c8ebf;edgeStyle=orthogonalEdgeStyle;curved=1;" edge="1" parent="1" source="3oDLIQcT44kydoRIOHkW-48" target="3oDLIQcT44kydoRIOHkW-50">
          <mxGeometry width="50" height="50" relative="1" as="geometry">
            <mxPoint x="960" y="800" as="sourcePoint" />
            <mxPoint x="1010" y="750" as="targetPoint" />
            <Array as="points">
              <mxPoint x="990" y="730" />
              <mxPoint x="990" y="610" />
            </Array>
          </mxGeometry>
        </mxCell>
        <mxCell id="3oDLIQcT44kydoRIOHkW-57" value="" style="endArrow=classic;html=1;rounded=0;fillColor=#dae8fc;strokeColor=#6c8ebf;edgeStyle=orthogonalEdgeStyle;curved=1;" edge="1" parent="1" source="3oDLIQcT44kydoRIOHkW-22" target="3oDLIQcT44kydoRIOHkW-50">
          <mxGeometry width="50" height="50" relative="1" as="geometry">
            <mxPoint x="620" y="780" as="sourcePoint" />
            <mxPoint x="1010" y="750" as="targetPoint" />
            <Array as="points">
              <mxPoint x="380" y="780" />
              <mxPoint x="1050" y="780" />
            </Array>
          </mxGeometry>
        </mxCell>
        <mxCell id="3oDLIQcT44kydoRIOHkW-58" value="" style="endArrow=classic;html=1;rounded=0;fillColor=#dae8fc;strokeColor=#6c8ebf;edgeStyle=orthogonalEdgeStyle;elbow=vertical;curved=1;" edge="1" parent="1" source="3oDLIQcT44kydoRIOHkW-49" target="3oDLIQcT44kydoRIOHkW-50">
          <mxGeometry width="50" height="50" relative="1" as="geometry">
            <mxPoint x="880" y="710" as="sourcePoint" />
            <mxPoint x="1010" y="750" as="targetPoint" />
          </mxGeometry>
        </mxCell>
        <mxCell id="3oDLIQcT44kydoRIOHkW-59" value="" style="endArrow=classic;html=1;rounded=0;strokeWidth=2;fillColor=#ffe6cc;strokeColor=#d79b00;" edge="1" parent="1" source="3oDLIQcT44kydoRIOHkW-50" target="3oDLIQcT44kydoRIOHkW-55">
          <mxGeometry width="50" height="50" relative="1" as="geometry">
            <mxPoint x="950" y="840" as="sourcePoint" />
            <mxPoint x="1000" y="790" as="targetPoint" />
          </mxGeometry>
        </mxCell>
        <mxCell id="3oDLIQcT44kydoRIOHkW-61" value="" style="endArrow=classic;html=1;rounded=0;fillColor=#dae8fc;strokeColor=#6c8ebf;edgeStyle=orthogonalEdgeStyle;curved=1;" edge="1" parent="1" source="3oDLIQcT44kydoRIOHkW-21" target="3oDLIQcT44kydoRIOHkW-50">
          <mxGeometry width="50" height="50" relative="1" as="geometry">
            <mxPoint x="433" y="733" as="sourcePoint" />
            <mxPoint x="1050" y="630" as="targetPoint" />
            <Array as="points">
              <mxPoint x="140" y="800" />
              <mxPoint x="1070" y="800" />
            </Array>
          </mxGeometry>
        </mxCell>
        <mxCell id="3oDLIQcT44kydoRIOHkW-63" value="1. Create CA key" style="rounded=0;whiteSpace=wrap;html=1;fillColor=#ffe6cc;strokeColor=#d79b00;strokeWidth=2;" vertex="1" parent="1">
          <mxGeometry x="80" y="1020" width="120" height="60" as="geometry" />
        </mxCell>
        <mxCell id="3oDLIQcT44kydoRIOHkW-64" value="2. Create CA certificate" style="rounded=0;whiteSpace=wrap;html=1;fillColor=#ffe6cc;strokeColor=#d79b00;strokeWidth=2;" vertex="1" parent="1">
          <mxGeometry x="320" y="1020" width="120" height="60" as="geometry" />
        </mxCell>
        <mxCell id="3oDLIQcT44kydoRIOHkW-65" value="CA Key" style="whiteSpace=wrap;html=1;shape=mxgraph.basic.document;fillColor=#dae8fc;strokeColor=#6c8ebf;" vertex="1" parent="1">
          <mxGeometry x="98.75" y="1140" width="82.5" height="60" as="geometry" />
        </mxCell>
        <mxCell id="3oDLIQcT44kydoRIOHkW-66" value="CA certificate" style="whiteSpace=wrap;html=1;shape=mxgraph.basic.document;fillColor=#dae8fc;strokeColor=#6c8ebf;" vertex="1" parent="1">
          <mxGeometry x="337.5" y="1140" width="85" height="60" as="geometry" />
        </mxCell>
        <mxCell id="3oDLIQcT44kydoRIOHkW-67" value="CA config" style="whiteSpace=wrap;html=1;shape=mxgraph.basic.document;fillColor=#dae8fc;strokeColor=#6c8ebf;" vertex="1" parent="1">
          <mxGeometry x="340" y="900" width="80" height="60" as="geometry" />
        </mxCell>
        <mxCell id="3oDLIQcT44kydoRIOHkW-68" value="" style="endArrow=classic;html=1;rounded=0;strokeWidth=2;fillColor=#ffe6cc;strokeColor=#d79b00;" edge="1" parent="1" source="3oDLIQcT44kydoRIOHkW-63" target="3oDLIQcT44kydoRIOHkW-65">
          <mxGeometry width="50" height="50" relative="1" as="geometry">
            <mxPoint x="480" y="1240" as="sourcePoint" />
            <mxPoint x="530" y="1190" as="targetPoint" />
          </mxGeometry>
        </mxCell>
        <mxCell id="3oDLIQcT44kydoRIOHkW-69" value="" style="endArrow=classic;html=1;rounded=0;fillColor=#dae8fc;strokeColor=#6c8ebf;edgeStyle=orthogonalEdgeStyle;curved=1;" edge="1" parent="1" source="3oDLIQcT44kydoRIOHkW-65" target="3oDLIQcT44kydoRIOHkW-64">
          <mxGeometry width="50" height="50" relative="1" as="geometry">
            <mxPoint x="480" y="1240" as="sourcePoint" />
            <mxPoint x="370" y="1120" as="targetPoint" />
            <Array as="points">
              <mxPoint x="260" y="1170" />
              <mxPoint x="260" y="1050" />
            </Array>
          </mxGeometry>
        </mxCell>
        <mxCell id="3oDLIQcT44kydoRIOHkW-70" value="" style="endArrow=classic;html=1;rounded=0;fillColor=#dae8fc;strokeColor=#6c8ebf;" edge="1" parent="1" source="3oDLIQcT44kydoRIOHkW-67" target="3oDLIQcT44kydoRIOHkW-64">
          <mxGeometry width="50" height="50" relative="1" as="geometry">
            <mxPoint x="480" y="1240" as="sourcePoint" />
            <mxPoint x="530" y="1190" as="targetPoint" />
          </mxGeometry>
        </mxCell>
        <mxCell id="3oDLIQcT44kydoRIOHkW-71" value="" style="endArrow=classic;html=1;rounded=0;strokeWidth=2;fillColor=#ffe6cc;strokeColor=#d79b00;" edge="1" parent="1" source="3oDLIQcT44kydoRIOHkW-64" target="3oDLIQcT44kydoRIOHkW-66">
          <mxGeometry width="50" height="50" relative="1" as="geometry">
            <mxPoint x="440" y="1130" as="sourcePoint" />
            <mxPoint x="530" y="1190" as="targetPoint" />
          </mxGeometry>
        </mxCell>
        <mxCell id="3oDLIQcT44kydoRIOHkW-72" value="Using a precertificate" style="text;html=1;align=left;verticalAlign=middle;whiteSpace=wrap;rounded=0;fontStyle=5" vertex="1" parent="1">
          <mxGeometry x="80" y="900" width="240" height="30" as="geometry" />
        </mxCell>
        <mxCell id="3oDLIQcT44kydoRIOHkW-73" value="3. Create certificate key" style="rounded=0;whiteSpace=wrap;html=1;fillColor=#ffe6cc;strokeColor=#d79b00;strokeWidth=2;" vertex="1" parent="1">
          <mxGeometry x="560" y="1020" width="120" height="60" as="geometry" />
        </mxCell>
        <mxCell id="3oDLIQcT44kydoRIOHkW-74" value="4. Create certificate signing request" style="rounded=0;whiteSpace=wrap;html=1;fillColor=#ffe6cc;strokeColor=#d79b00;strokeWidth=2;" vertex="1" parent="1">
          <mxGeometry x="800" y="1020" width="120" height="60" as="geometry" />
        </mxCell>
        <mxCell id="3oDLIQcT44kydoRIOHkW-75" value="Certificate key" style="whiteSpace=wrap;html=1;shape=mxgraph.basic.document;fillColor=#dae8fc;strokeColor=#6c8ebf;" vertex="1" parent="1">
          <mxGeometry x="578.75" y="1140" width="82.5" height="60" as="geometry" />
        </mxCell>
        <mxCell id="3oDLIQcT44kydoRIOHkW-76" value="Certificate Signing Request" style="whiteSpace=wrap;html=1;shape=mxgraph.basic.document;fillColor=#dae8fc;strokeColor=#6c8ebf;" vertex="1" parent="1">
          <mxGeometry x="817.5" y="1140" width="85" height="60" as="geometry" />
        </mxCell>
        <mxCell id="3oDLIQcT44kydoRIOHkW-77" value="Config&lt;div&gt;(dn)&lt;/div&gt;" style="whiteSpace=wrap;html=1;shape=mxgraph.basic.document;fillColor=#dae8fc;strokeColor=#6c8ebf;" vertex="1" parent="1">
          <mxGeometry x="820" y="900" width="80" height="60" as="geometry" />
        </mxCell>
        <mxCell id="3oDLIQcT44kydoRIOHkW-78" value="5. Create precertificate" style="rounded=0;whiteSpace=wrap;html=1;fillColor=#ffe6cc;strokeColor=#d79b00;strokeWidth=2;" vertex="1" parent="1">
          <mxGeometry x="1040" y="1020" width="120" height="60" as="geometry" />
        </mxCell>
        <mxCell id="3oDLIQcT44kydoRIOHkW-79" value="" style="endArrow=classic;html=1;rounded=0;strokeWidth=2;fillColor=#ffe6cc;strokeColor=#d79b00;" edge="1" parent="1" source="3oDLIQcT44kydoRIOHkW-73" target="3oDLIQcT44kydoRIOHkW-75">
          <mxGeometry width="50" height="50" relative="1" as="geometry">
            <mxPoint x="960" y="1240" as="sourcePoint" />
            <mxPoint x="1010" y="1190" as="targetPoint" />
          </mxGeometry>
        </mxCell>
        <mxCell id="3oDLIQcT44kydoRIOHkW-80" value="" style="endArrow=classic;html=1;rounded=0;fillColor=#dae8fc;strokeColor=#6c8ebf;edgeStyle=orthogonalEdgeStyle;curved=1;" edge="1" parent="1" source="3oDLIQcT44kydoRIOHkW-75" target="3oDLIQcT44kydoRIOHkW-74">
          <mxGeometry width="50" height="50" relative="1" as="geometry">
            <mxPoint x="960" y="1240" as="sourcePoint" />
            <mxPoint x="850" y="1120" as="targetPoint" />
            <Array as="points">
              <mxPoint x="740" y="1170" />
              <mxPoint x="740" y="1050" />
            </Array>
          </mxGeometry>
        </mxCell>
        <mxCell id="3oDLIQcT44kydoRIOHkW-81" value="" style="endArrow=classic;html=1;rounded=0;fillColor=#dae8fc;strokeColor=#6c8ebf;" edge="1" parent="1" source="3oDLIQcT44kydoRIOHkW-77" target="3oDLIQcT44kydoRIOHkW-74">
          <mxGeometry width="50" height="50" relative="1" as="geometry">
            <mxPoint x="960" y="1240" as="sourcePoint" />
            <mxPoint x="1010" y="1190" as="targetPoint" />
          </mxGeometry>
        </mxCell>
        <mxCell id="3oDLIQcT44kydoRIOHkW-82" value="" style="endArrow=classic;html=1;rounded=0;strokeWidth=2;fillColor=#ffe6cc;strokeColor=#d79b00;" edge="1" parent="1" source="3oDLIQcT44kydoRIOHkW-74" target="3oDLIQcT44kydoRIOHkW-76">
          <mxGeometry width="50" height="50" relative="1" as="geometry">
            <mxPoint x="920" y="1130" as="sourcePoint" />
            <mxPoint x="1010" y="1190" as="targetPoint" />
          </mxGeometry>
        </mxCell>
        <mxCell id="3oDLIQcT44kydoRIOHkW-83" value="Precertificate" style="whiteSpace=wrap;html=1;shape=mxgraph.basic.document;fillColor=#dae8fc;strokeColor=#6c8ebf;" vertex="1" parent="1">
          <mxGeometry x="1060" y="1140" width="80" height="60" as="geometry" />
        </mxCell>
        <mxCell id="3oDLIQcT44kydoRIOHkW-84" value="" style="endArrow=classic;html=1;rounded=0;fillColor=#dae8fc;strokeColor=#6c8ebf;edgeStyle=orthogonalEdgeStyle;curved=1;" edge="1" parent="1" source="3oDLIQcT44kydoRIOHkW-76" target="3oDLIQcT44kydoRIOHkW-78">
          <mxGeometry width="50" height="50" relative="1" as="geometry">
            <mxPoint x="960" y="1240" as="sourcePoint" />
            <mxPoint x="1010" y="1190" as="targetPoint" />
            <Array as="points">
              <mxPoint x="990" y="1170" />
              <mxPoint x="990" y="1050" />
            </Array>
          </mxGeometry>
        </mxCell>
        <mxCell id="3oDLIQcT44kydoRIOHkW-85" value="" style="endArrow=classic;html=1;rounded=0;fillColor=#dae8fc;strokeColor=#6c8ebf;edgeStyle=orthogonalEdgeStyle;curved=1;" edge="1" parent="1" source="3oDLIQcT44kydoRIOHkW-66" target="3oDLIQcT44kydoRIOHkW-78">
          <mxGeometry width="50" height="50" relative="1" as="geometry">
            <mxPoint x="620" y="1220" as="sourcePoint" />
            <mxPoint x="1010" y="1190" as="targetPoint" />
            <Array as="points">
              <mxPoint x="380" y="1220" />
              <mxPoint x="1050" y="1220" />
            </Array>
          </mxGeometry>
        </mxCell>
        <mxCell id="3oDLIQcT44kydoRIOHkW-86" value="" style="endArrow=classic;html=1;rounded=0;fillColor=#dae8fc;strokeColor=#6c8ebf;edgeStyle=orthogonalEdgeStyle;elbow=vertical;curved=1;" edge="1" parent="1" source="3oDLIQcT44kydoRIOHkW-90" target="3oDLIQcT44kydoRIOHkW-78">
          <mxGeometry width="50" height="50" relative="1" as="geometry">
            <mxPoint x="880" y="1150" as="sourcePoint" />
            <mxPoint x="1010" y="1190" as="targetPoint" />
          </mxGeometry>
        </mxCell>
        <mxCell id="3oDLIQcT44kydoRIOHkW-87" value="" style="endArrow=classic;html=1;rounded=0;strokeWidth=2;fillColor=#ffe6cc;strokeColor=#d79b00;" edge="1" parent="1" source="3oDLIQcT44kydoRIOHkW-78" target="3oDLIQcT44kydoRIOHkW-83">
          <mxGeometry width="50" height="50" relative="1" as="geometry">
            <mxPoint x="950" y="1280" as="sourcePoint" />
            <mxPoint x="1000" y="1230" as="targetPoint" />
          </mxGeometry>
        </mxCell>
        <mxCell id="3oDLIQcT44kydoRIOHkW-88" value="" style="endArrow=classic;html=1;rounded=0;fillColor=#dae8fc;strokeColor=#6c8ebf;edgeStyle=orthogonalEdgeStyle;curved=1;" edge="1" parent="1" source="3oDLIQcT44kydoRIOHkW-65" target="3oDLIQcT44kydoRIOHkW-78">
          <mxGeometry width="50" height="50" relative="1" as="geometry">
            <mxPoint x="433" y="1173" as="sourcePoint" />
            <mxPoint x="1050" y="1070" as="targetPoint" />
            <Array as="points">
              <mxPoint x="140" y="1240" />
              <mxPoint x="1070" y="1240" />
            </Array>
          </mxGeometry>
        </mxCell>
        <mxCell id="3oDLIQcT44kydoRIOHkW-90" value="Config:&lt;div&gt;extension (SCT poisoned)&lt;/div&gt;" style="whiteSpace=wrap;html=1;shape=mxgraph.basic.document;fillColor=#dae8fc;strokeColor=#6c8ebf;" vertex="1" parent="1">
          <mxGeometry x="1060" y="900" width="80" height="60" as="geometry" />
        </mxCell>
        <mxCell id="3oDLIQcT44kydoRIOHkW-92" value="Config:&amp;nbsp; extension&lt;div&gt;(SCT)&lt;/div&gt;" style="whiteSpace=wrap;html=1;shape=mxgraph.basic.document;fillColor=#dae8fc;strokeColor=#6c8ebf;" vertex="1" parent="1">
          <mxGeometry x="1400" y="900" width="80" height="60" as="geometry" />
        </mxCell>
        <mxCell id="3oDLIQcT44kydoRIOHkW-93" value="6. CT Logs" style="rounded=0;whiteSpace=wrap;html=1;fillColor=#ffe6cc;strokeColor=#d79b00;strokeWidth=2;" vertex="1" parent="1">
          <mxGeometry x="1280" y="1020" width="120" height="60" as="geometry" />
        </mxCell>
        <mxCell id="3oDLIQcT44kydoRIOHkW-94" value="" style="endArrow=classic;html=1;rounded=0;fillColor=#dae8fc;strokeColor=#6c8ebf;edgeStyle=orthogonalEdgeStyle;curved=1;" edge="1" parent="1" source="3oDLIQcT44kydoRIOHkW-83" target="3oDLIQcT44kydoRIOHkW-93">
          <mxGeometry width="50" height="50" relative="1" as="geometry">
            <mxPoint x="913" y="1180" as="sourcePoint" />
            <mxPoint x="1050" y="1060" as="targetPoint" />
            <Array as="points">
              <mxPoint x="1170" y="1180" />
              <mxPoint x="1170" y="1060" />
            </Array>
          </mxGeometry>
        </mxCell>
        <mxCell id="3oDLIQcT44kydoRIOHkW-96" value="" style="endArrow=classic;html=1;rounded=0;fillColor=#dae8fc;strokeColor=#6c8ebf;edgeStyle=orthogonalEdgeStyle;elbow=vertical;curved=1;" edge="1" parent="1" source="3oDLIQcT44kydoRIOHkW-93" target="3oDLIQcT44kydoRIOHkW-92">
          <mxGeometry width="50" height="50" relative="1" as="geometry">
            <mxPoint x="1110" y="970" as="sourcePoint" />
            <mxPoint x="1110" y="1030" as="targetPoint" />
            <Array as="points">
              <mxPoint x="1340" y="930" />
            </Array>
          </mxGeometry>
        </mxCell>
        <mxCell id="3oDLIQcT44kydoRIOHkW-97" value="7. Create certificate" style="rounded=0;whiteSpace=wrap;html=1;fillColor=#ffe6cc;strokeColor=#d79b00;strokeWidth=2;" vertex="1" parent="1">
          <mxGeometry x="1520" y="1020" width="120" height="60" as="geometry" />
        </mxCell>
        <mxCell id="3oDLIQcT44kydoRIOHkW-98" value="Certificate" style="whiteSpace=wrap;html=1;shape=mxgraph.basic.document;fillColor=#dae8fc;strokeColor=#6c8ebf;" vertex="1" parent="1">
          <mxGeometry x="1540" y="1140" width="80" height="60" as="geometry" />
        </mxCell>
        <mxCell id="3oDLIQcT44kydoRIOHkW-99" value="" style="endArrow=classic;html=1;rounded=0;strokeWidth=2;fillColor=#ffe6cc;strokeColor=#d79b00;" edge="1" parent="1" source="3oDLIQcT44kydoRIOHkW-97" target="3oDLIQcT44kydoRIOHkW-98">
          <mxGeometry width="50" height="50" relative="1" as="geometry">
            <mxPoint x="1350" y="1280" as="sourcePoint" />
            <mxPoint x="1400" y="1230" as="targetPoint" />
          </mxGeometry>
        </mxCell>
        <mxCell id="3oDLIQcT44kydoRIOHkW-100" value="" style="endArrow=classic;html=1;rounded=0;fillColor=#dae8fc;strokeColor=#6c8ebf;edgeStyle=orthogonalEdgeStyle;elbow=vertical;curved=1;" edge="1" parent="1" source="3oDLIQcT44kydoRIOHkW-92" target="3oDLIQcT44kydoRIOHkW-97">
          <mxGeometry width="50" height="50" relative="1" as="geometry">
            <mxPoint x="1270" y="1030" as="sourcePoint" />
            <mxPoint x="1330" y="940" as="targetPoint" />
            <Array as="points">
              <mxPoint x="1570" y="940" />
            </Array>
          </mxGeometry>
        </mxCell>
        <mxCell id="3oDLIQcT44kydoRIOHkW-101" value="" style="endArrow=classic;html=1;rounded=0;fillColor=#dae8fc;strokeColor=#6c8ebf;edgeStyle=orthogonalEdgeStyle;curved=1;" edge="1" parent="1" source="3oDLIQcT44kydoRIOHkW-76" target="3oDLIQcT44kydoRIOHkW-97">
          <mxGeometry width="50" height="50" relative="1" as="geometry">
            <mxPoint x="913" y="1180" as="sourcePoint" />
            <mxPoint x="1050" y="1060" as="targetPoint" />
            <Array as="points">
              <mxPoint x="860" y="1210" />
              <mxPoint x="1420" y="1210" />
              <mxPoint x="1420" y="1030" />
            </Array>
          </mxGeometry>
        </mxCell>
        <mxCell id="3oDLIQcT44kydoRIOHkW-102" value="" style="endArrow=classic;html=1;rounded=0;fillColor=#dae8fc;strokeColor=#6c8ebf;edgeStyle=orthogonalEdgeStyle;curved=1;" edge="1" parent="1" source="3oDLIQcT44kydoRIOHkW-66" target="3oDLIQcT44kydoRIOHkW-97">
          <mxGeometry width="50" height="50" relative="1" as="geometry">
            <mxPoint x="730" y="1120" as="sourcePoint" />
            <mxPoint x="780" y="1070" as="targetPoint" />
            <Array as="points">
              <mxPoint x="380" y="1250" />
              <mxPoint x="1460" y="1250" />
              <mxPoint x="1460" y="1050" />
            </Array>
          </mxGeometry>
        </mxCell>
        <mxCell id="3oDLIQcT44kydoRIOHkW-103" value="" style="endArrow=classic;html=1;rounded=0;fillColor=#dae8fc;strokeColor=#6c8ebf;edgeStyle=orthogonalEdgeStyle;curved=1;" edge="1" parent="1" source="3oDLIQcT44kydoRIOHkW-75" target="3oDLIQcT44kydoRIOHkW-97">
          <mxGeometry width="50" height="50" relative="1" as="geometry">
            <mxPoint x="730" y="1120" as="sourcePoint" />
            <mxPoint x="780" y="1070" as="targetPoint" />
            <Array as="points">
              <mxPoint x="620" y="1230" />
              <mxPoint x="1440" y="1230" />
              <mxPoint x="1440" y="1040" />
            </Array>
          </mxGeometry>
        </mxCell>
        <mxCell id="3oDLIQcT44kydoRIOHkW-104" value="" style="endArrow=classic;html=1;rounded=0;fillColor=#dae8fc;strokeColor=#6c8ebf;edgeStyle=orthogonalEdgeStyle;curved=1;" edge="1" parent="1" source="3oDLIQcT44kydoRIOHkW-65" target="3oDLIQcT44kydoRIOHkW-97">
          <mxGeometry width="50" height="50" relative="1" as="geometry">
            <mxPoint x="150" y="1223" as="sourcePoint" />
            <mxPoint x="1080" y="1103" as="targetPoint" />
            <Array as="points">
              <mxPoint x="140" y="1260" />
              <mxPoint x="1480" y="1260" />
              <mxPoint x="1480" y="1060" />
            </Array>
          </mxGeometry>
        </mxCell>
      </root>
    </mxGraphModel>
  </diagram>
</mxfile>
